<svg width="239" height="223" viewBox="0 0 239 223" fill="none" xmlns="http://www.w3.org/2000/svg">
<path d="M26.4312 185.324C26.4312 185.324 -8.21751 172.263 7.18007 117.055C9.97963 111.508 17.1597 97.2945 26.4312 115.426C29.9388 125.552 33.0842 134.372 33.0842 134.372C33.0842 134.372 39.2103 149.076 52.8623 125.721C66.5143 102.365 89.8 82.6051 122.868 87.6757C135.301 89.3044 157.879 95.1894 166.096 105.807C169.242 108.742 171.168 111.2 174.149 110.54C177.13 110.709 181.856 111.031 187.455 118.868C190.074 123.447 196.727 126.873 200.926 125.89C204.071 125.229 207.233 124.092 208.452 124.584C212.124 121.157 214.924 117.562 214.924 117.562C214.924 117.562 213.705 108.419 220.177 108.096C223.323 108.266 224.903 111.692 224.195 115.61C226.649 117.239 232.067 119.359 230.14 122.463C228.922 124.584 225.068 125.567 221.396 121.803C218.069 124.092 212.997 129.316 212.997 129.316C212.997 129.316 214.743 161.154 199.526 171.449C197.418 173.892 185.693 187.29 167.496 187.936C149.299 188.581 39.2103 188.597 39.2103 188.597C39.2103 188.597 31.388 188.074 26.4312 185.324Z" fill="#F4C323"/>
<path d="M199.526 171.449C212.915 162.398 213.178 136.707 213.046 130.622C193.515 130.423 196.578 155.407 195.014 159.033C191.342 163.197 182.679 169.805 174.544 173.738C152.757 185.001 125.453 178.148 119.409 176.427C99.1867 164.918 71.8828 168.345 64.0111 169.082C43.0144 171.049 34.5993 169.328 28.572 167.361C2.83251 154.869 13.3391 109.065 13.3391 109.065L11.0665 110.509C9.38677 112.706 8.05286 115.318 7.16359 117.07C-8.23398 172.263 26.4147 185.339 26.4147 185.339C31.3715 188.09 39.1938 188.612 39.1938 188.612C39.1938 188.612 149.282 188.612 167.48 187.951C185.693 187.291 197.418 173.892 199.526 171.449Z" fill="#F3AF1A"/>
<path d="M60.3881 124C60.3881 124.823 60.7386 125.612 61.3624 126.195C61.9863 126.777 62.8324 127.104 63.7147 127.104C64.5969 127.104 65.443 126.777 66.0669 126.195C66.6907 125.612 67.0412 124.823 67.0412 124C67.0412 123.177 66.6907 122.387 66.0669 121.805C65.443 121.223 64.5969 120.896 63.7147 120.896C62.8324 120.896 61.9863 121.223 61.3624 121.805C60.7386 122.387 60.3881 123.177 60.3881 124Z" fill="#FAF6F3"/>
<path d="M99.4996 101.351C99.4996 102.174 99.8501 102.964 100.474 103.546C101.098 104.128 101.944 104.455 102.826 104.455C103.708 104.455 104.555 104.128 105.178 103.546C105.802 102.964 106.153 102.174 106.153 101.351C106.153 100.528 105.802 99.7384 105.178 99.1563C104.555 98.5742 103.708 98.2472 102.826 98.2472C101.944 98.2472 101.098 98.5742 100.474 99.1563C99.8501 99.7384 99.4996 100.528 99.4996 101.351Z" fill="#FAF6F3"/>
<path d="M109.479 110.54C109.479 111.363 109.83 112.152 110.454 112.734C111.077 113.316 111.924 113.643 112.806 113.643C113.688 113.643 114.534 113.316 115.158 112.734C115.782 112.152 116.132 111.363 116.132 110.54C116.132 109.716 115.782 108.927 115.158 108.345C114.534 107.763 113.688 107.436 112.806 107.436C111.924 107.436 111.077 107.763 110.454 108.345C109.83 108.927 109.479 109.716 109.479 110.54Z" fill="#FAF6F3"/>
<path d="M124.185 105.884C124.185 106.707 124.536 107.497 125.159 108.079C125.783 108.661 126.629 108.988 127.512 108.988C128.394 108.988 129.24 108.661 129.864 108.079C130.488 107.497 130.838 106.707 130.838 105.884C130.838 105.061 130.488 104.271 129.864 103.689C129.24 103.107 128.394 102.78 127.512 102.78C126.629 102.78 125.783 103.107 125.159 103.689C124.536 104.271 124.185 105.061 124.185 105.884Z" fill="#FAF6F3"/>
<path d="M159.097 119.59C159.097 120.413 159.448 121.203 160.072 121.785C160.695 122.367 161.542 122.694 162.424 122.694C163.306 122.694 164.152 122.367 164.776 121.785C165.4 121.203 165.75 120.413 165.75 119.59C165.75 118.767 165.4 117.977 164.776 117.395C164.152 116.813 163.306 116.486 162.424 116.486C161.542 116.486 160.695 116.813 160.072 117.395C159.448 117.977 159.097 118.767 159.097 119.59Z" fill="#FAF6F3"/>
<path d="M166.541 106.222C166.458 106.145 129.257 99.5994 123.477 133.158C122.16 144.175 123.74 164.027 123.477 166.224C126.622 150.797 136.586 106.176 172.552 110.586C171.185 110.509 169.62 109.172 168.385 107.974C167.595 107.221 166.87 106.545 166.541 106.222Z" fill="#F3AF1A"/>
<path d="M93.5876 102.273C93.5876 102.273 93.1924 102.488 92.4843 102.841C92.3196 102.934 92.122 103.026 91.9244 103.133C91.7267 103.241 91.5127 103.349 91.2821 103.471C90.821 103.717 90.327 103.994 89.8 104.286C89.273 104.578 88.6966 104.916 88.1203 105.254C87.5439 105.607 86.9346 105.961 86.3252 106.36C86.0123 106.545 85.7159 106.76 85.403 106.944C85.2383 107.036 85.0901 107.144 84.9419 107.251C84.7937 107.359 84.629 107.451 84.4808 107.559C84.1844 107.774 83.8715 107.974 83.5586 108.204C83.4104 108.312 83.2622 108.419 83.0975 108.527L82.6529 108.865C82.0436 109.31 81.4672 109.787 80.8908 110.248C80.7426 110.355 80.6108 110.478 80.4626 110.601C80.3144 110.724 80.1827 110.832 80.0345 110.954C79.7545 111.185 79.491 111.431 79.2111 111.661C78.6841 112.138 78.1571 112.599 77.6631 113.06C77.5313 113.167 77.4161 113.29 77.2843 113.398C77.169 113.505 77.0538 113.628 76.9385 113.736C76.7079 113.966 76.4609 114.166 76.2468 114.381C75.8187 114.811 75.3905 115.18 75.0282 115.549C74.6659 115.902 74.3036 116.209 74.0401 116.471C73.7602 116.732 73.5296 116.932 73.3649 117.07C73.2002 117.208 73.1014 117.285 73.1014 117.285V116.978C73.1014 116.778 73.1014 116.471 73.1344 116.102C73.1508 115.718 73.2332 115.272 73.332 114.75C73.4143 114.227 73.5955 113.659 73.7931 113.044C73.8425 112.891 73.9084 112.737 73.9578 112.583C74.0236 112.43 74.0895 112.261 74.1554 112.107C74.2213 111.938 74.2871 111.784 74.3695 111.615C74.4518 111.446 74.5342 111.293 74.6165 111.123C74.9459 110.447 75.374 109.771 75.8516 109.08C76.0986 108.742 76.3456 108.404 76.6256 108.066C76.9056 107.743 77.202 107.405 77.5149 107.082C78.1406 106.452 78.8323 105.838 79.5569 105.3L80.1168 104.9C80.3144 104.778 80.4956 104.655 80.6932 104.516L80.9896 104.332C81.0884 104.27 81.1872 104.209 81.286 104.163C81.4837 104.055 81.6813 103.932 81.8789 103.825C82.2741 103.61 82.6858 103.41 83.0975 103.226C83.5092 103.057 83.9209 102.872 84.3326 102.734C85.156 102.442 85.9629 102.227 86.7534 102.058C87.5439 101.904 88.2849 101.812 88.9766 101.766C89.6682 101.72 90.3105 101.72 90.8869 101.766C91.4468 101.797 91.9408 101.873 92.3525 101.95C92.7478 102.027 93.0607 102.104 93.2747 102.181C93.3735 102.211 93.4559 102.242 93.5218 102.258C93.5712 102.258 93.5876 102.273 93.5876 102.273Z" fill="white"/>
<path d="M134.28 79.2093C134.28 79.2093 155.985 65.1652 174.528 84.1109C176.718 85.6628 183.717 87.0457 188.443 83.3734C191.16 81.0839 196.677 75.6138 196.677 75.6138C196.677 75.6138 194.932 62.6299 200.531 63.2906C203.067 63.4596 205.603 67.2088 204.994 71.7878C207.974 71.9568 214.265 72.5253 212.865 77.4269C212.157 78.902 207.612 80.6998 204.631 76.5357C200.86 79.5627 195.623 85.7243 195.623 85.7243C195.623 85.7243 200.959 103.963 197.632 110.494C191.934 109.28 181.626 106.007 162.885 94.0063C156.775 90.3954 140.933 81.2529 134.28 79.2093Z" fill="#F5C324"/>
<path d="M77.8607 36.8926C78.2888 36.8773 78.7005 36.9387 79.1287 37.0309C79.3428 37.077 79.5404 37.1231 79.7545 37.1846C79.9521 37.246 80.1662 37.3229 80.3638 37.3843C80.5614 37.4612 80.759 37.538 80.9566 37.6302C81.1543 37.7224 81.3519 37.8146 81.533 37.9221C81.7306 38.0297 81.9118 38.1372 82.0929 38.2602L82.6364 38.6289C82.9822 38.8902 83.328 39.1667 83.6409 39.474C83.7891 39.6277 83.9538 39.7814 84.102 39.935C84.2502 40.104 84.3985 40.2577 84.5302 40.4267L84.9254 40.9491C85.0572 41.1335 85.1724 41.3179 85.2877 41.4869C85.4195 41.6713 85.5018 41.8557 85.6171 42.0555L85.7818 42.3474L85.9135 42.6393C85.9958 42.8391 86.1111 43.0235 86.177 43.2232L86.4075 43.8225C86.4899 44.0222 86.5393 44.222 86.6052 44.4371C86.671 44.6369 86.7369 44.852 86.7698 45.0517L86.9016 45.6663C86.9345 45.8661 86.9675 46.0812 87.0004 46.281C87.0663 46.6958 87.0992 47.1107 87.1321 47.5256C87.1486 47.7407 87.1486 47.9404 87.1486 48.1402V48.7548C87.1321 49.1543 87.1157 49.5692 87.0827 49.9687C87.0333 50.3682 87.0004 50.7677 86.9345 51.1672C86.8687 51.5667 86.8028 51.9509 86.7204 52.3504L86.6875 52.5194L86.6546 52.6269L86.0288 54.3325L85.7324 55.1622L85.4524 55.992L85.1724 56.8217C85.0901 57.0983 84.9913 57.3749 84.9254 57.6361C84.7608 58.1893 84.6125 58.7271 84.4973 59.2802C84.4314 59.5568 84.382 59.8334 84.3326 60.1099C84.2832 60.3865 84.2338 60.6631 84.2008 60.9397L84.1514 61.3546C84.135 61.4928 84.1185 61.6311 84.1185 61.7848C84.102 61.9231 84.102 62.0614 84.0856 62.215C84.0691 62.3533 84.0691 62.507 84.0691 62.6453V63.2906L84.0856 63.5057C84.0856 63.6594 84.102 63.7977 84.1185 63.9513C84.135 64.105 84.135 64.2586 84.1679 64.3969C84.2008 64.7042 84.2502 65.0116 84.2996 65.3189L84.3985 65.7952C84.4314 65.9489 84.4643 66.1179 84.4973 66.2715C84.3655 66.1793 84.2173 66.0718 84.0856 65.9642C83.9538 65.8567 83.8221 65.7337 83.6903 65.6262C83.5586 65.5186 83.4433 65.3803 83.328 65.2574C83.1963 65.1345 83.0975 64.9962 82.9822 64.8579C82.7681 64.5967 82.554 64.3047 82.3729 64.0128C82.2741 63.8591 82.1917 63.7208 82.1094 63.5672L81.8624 63.1062C81.78 62.9526 81.7142 62.7836 81.6483 62.6299C81.5824 62.4609 81.5166 62.3072 81.4671 62.1382C81.3519 61.8155 81.2531 61.4775 81.1707 61.1394C81.0884 60.8014 81.0225 60.4634 80.9566 60.1253C80.9072 59.7873 80.8578 59.4339 80.8414 59.0958C80.792 58.4044 80.792 57.7283 80.8249 57.0522C80.8414 56.7142 80.8743 56.3761 80.9237 56.0381C80.9566 55.7 81.0061 55.3774 81.0719 55.0393C81.1213 54.7166 81.1872 54.3786 81.2531 54.0713C81.3189 53.7486 81.4013 53.4259 81.4836 53.1186C81.566 52.796 81.6483 52.4886 81.7306 52.1813C81.813 51.874 81.9118 51.5667 82.0106 51.2748L81.9447 51.5513C81.9941 51.2133 82.0435 50.8906 82.1094 50.5526L82.2411 49.5692L82.34 48.5858C82.3564 48.2631 82.3894 47.9405 82.3894 47.6178C82.3894 47.2951 82.4058 46.9724 82.4058 46.6497L82.3894 46.1734L82.3564 45.6971C82.3564 45.5434 82.34 45.3744 82.3235 45.2207C82.307 45.0671 82.2905 44.9134 82.2741 44.7444C82.2247 44.4371 82.1917 44.1144 82.1259 43.8225L82.0765 43.592L82.0271 43.3615C81.9941 43.2079 81.9612 43.0542 81.9118 42.9006C81.8624 42.7469 81.8294 42.5932 81.78 42.4396L81.6318 41.9786L81.4507 41.533C81.3848 41.3794 81.3189 41.2411 81.2531 41.0874C81.1872 40.9338 81.1049 40.7955 81.039 40.6418C80.9566 40.4882 80.8743 40.3499 80.792 40.1962L80.5285 39.766C80.4297 39.6277 80.3473 39.474 80.232 39.3358C80.0344 39.0438 79.8204 38.7672 79.5733 38.4906C79.4581 38.3524 79.3428 38.2141 79.211 38.0758L78.8158 37.6609C78.47 37.4151 78.19 37.1538 77.8607 36.8926ZM117.713 21.1583C117.433 21.4042 117.17 21.6347 116.923 21.8805C116.676 22.1264 116.429 22.3722 116.198 22.6181L116.033 22.8024C115.984 22.8639 115.918 22.9254 115.869 22.9868C115.754 23.1097 115.655 23.2327 115.539 23.371C115.441 23.4939 115.342 23.6322 115.243 23.7551L114.963 24.1392L114.7 24.5234L114.453 24.9075L114.222 25.307C114.156 25.4299 114.09 25.5682 114.024 25.7065C113.893 25.9677 113.777 26.229 113.679 26.5055C113.646 26.567 113.629 26.6438 113.596 26.7053L113.53 26.905C113.481 27.0433 113.448 27.1662 113.415 27.3045C113.382 27.4428 113.333 27.5658 113.316 27.704C113.3 27.8423 113.267 27.9653 113.234 28.1035C113.217 28.2418 113.201 28.3648 113.185 28.503C113.168 28.626 113.152 28.7643 113.152 28.9026C113.119 29.1638 113.135 29.4403 113.119 29.7016L113.135 30.1011L113.152 30.3008C113.152 30.3623 113.168 30.4391 113.168 30.5006L113.217 30.9001L113.283 31.2996C113.316 31.5608 113.399 31.8374 113.448 32.1139C113.497 32.3905 113.596 32.6517 113.662 32.9283C113.744 33.2049 113.843 33.4661 113.926 33.7427L113.843 33.5429C113.991 33.8656 114.156 34.2037 114.304 34.5417C114.453 34.8797 114.617 35.2178 114.765 35.5712C115.062 36.2626 115.342 36.9848 115.589 37.7377C115.721 38.1065 115.819 38.4906 115.935 38.8748C116.033 39.2589 116.132 39.6431 116.215 40.0426C116.248 40.2423 116.297 40.4421 116.33 40.6418C116.363 40.8416 116.396 41.0413 116.412 41.2411C116.462 41.6406 116.495 42.0554 116.511 42.455C116.528 42.8698 116.528 43.2693 116.495 43.6842C116.478 44.0991 116.429 44.4986 116.363 44.8981C116.297 45.2976 116.215 45.6971 116.099 46.0966C115.984 46.4961 115.852 46.8802 115.704 47.249L115.457 47.8022L115.194 48.34C114.996 48.6934 114.798 49.0314 114.551 49.3694C114.321 49.6921 114.074 50.0148 113.81 50.3067C113.547 50.6141 113.267 50.8906 112.97 51.1518C113.003 50.7677 113.069 50.3989 113.102 50.0148L113.135 49.7382L113.152 49.4616C113.168 49.2773 113.185 49.1082 113.201 48.9238C113.201 48.7395 113.234 48.5704 113.234 48.386L113.25 47.8636V47.3412L113.234 46.8341C113.217 46.4961 113.201 46.158 113.152 45.82C113.135 45.651 113.102 45.482 113.086 45.3283C113.069 45.1593 113.036 45.0056 113.003 44.8366C112.888 44.1913 112.74 43.5613 112.559 42.9313C112.476 42.624 112.361 42.3167 112.262 41.994L111.916 41.0721L111.735 40.6111L111.538 40.1501L111.34 39.6892L111.126 39.2282L110.698 38.2909L110.253 37.3382L109.792 36.3548C109.627 36.0322 109.479 35.6788 109.331 35.3407L109.282 35.2178L109.265 35.141C109.15 34.7722 109.051 34.4034 108.936 34.0346C108.886 33.8503 108.853 33.6505 108.804 33.4661C108.771 33.2817 108.722 33.082 108.689 32.8976C108.639 32.5135 108.573 32.1293 108.557 31.7298C108.541 31.5301 108.541 31.3303 108.524 31.1306L108.541 30.5313C108.541 30.4237 108.541 30.3315 108.557 30.2394L108.59 29.932C108.606 29.7323 108.623 29.5325 108.672 29.3328C108.755 28.9333 108.82 28.5338 108.952 28.1496C109.051 27.7501 109.216 27.3814 109.364 26.9972C109.446 26.8128 109.545 26.6285 109.627 26.4441C109.726 26.2597 109.825 26.0907 109.924 25.9063C110.023 25.7219 110.138 25.5682 110.253 25.3992L110.434 25.1534C110.5 25.0765 110.566 24.9997 110.632 24.9075C110.879 24.5848 111.159 24.2929 111.439 24.0163C111.587 23.878 111.735 23.7397 111.884 23.6168C112.032 23.4939 112.196 23.3556 112.345 23.248C112.509 23.1251 112.658 23.0176 112.822 22.8946L113.316 22.572C113.662 22.3722 113.991 22.1878 114.354 22.0342C114.716 21.8805 115.062 21.7268 115.441 21.6039C115.803 21.481 116.182 21.3888 116.544 21.312C116.939 21.2198 117.318 21.1583 117.713 21.1583ZM147.734 47.9712C147.734 47.9712 147.652 48.0326 147.504 48.1556C147.356 48.2785 147.158 48.4629 146.911 48.678C146.68 48.9085 146.4 49.1851 146.137 49.5077C145.873 49.8304 145.61 50.1992 145.412 50.5833C145.198 50.9828 145.05 51.3977 144.951 51.8279C144.852 52.2582 144.803 52.7038 144.82 53.1955C144.82 53.6718 144.869 54.1942 144.968 54.732C145.001 54.8703 145.017 55.0086 145.05 55.1469C145.067 55.2083 145.083 55.2852 145.099 55.362L145.149 55.5771L145.165 55.6847L145.182 55.7308V55.7769C145.182 55.7461 145.198 55.8537 145.165 55.7C145.182 55.7922 145.215 55.8691 145.231 55.9613L145.248 55.992V56.0074L145.264 56.0381L145.281 56.0995C145.281 56.1303 145.314 56.2071 145.346 56.2532C145.511 56.7295 145.791 57.3288 146.071 57.9741C146.351 58.6349 146.647 59.357 146.845 60.1253C147.043 60.8936 147.158 61.708 147.125 62.4916C147.092 63.2599 146.927 63.9974 146.68 64.5967C146.433 65.2113 146.12 65.7184 145.791 66.1179C145.462 66.5174 145.149 66.8401 144.869 67.0705C144.589 67.301 144.358 67.47 144.177 67.5776C144.013 67.6852 143.914 67.7313 143.914 67.7313C143.914 67.7313 143.914 67.6237 143.93 67.4393C143.93 67.3471 143.947 67.2396 143.947 67.1013C143.947 66.963 143.963 66.8247 143.963 66.6557C143.98 66.333 143.98 65.9488 143.98 65.534C143.963 65.1191 143.914 64.6735 143.831 64.2279C143.749 63.7823 143.601 63.3367 143.42 62.8911C143.239 62.4455 142.992 61.9999 142.712 61.5082C142.399 60.9858 142.069 60.4326 141.724 59.8795C141.361 59.2648 140.966 58.5734 140.653 57.6976C140.62 57.59 140.571 57.4978 140.538 57.3442L140.472 57.1444L140.439 57.0368L140.423 56.9907V56.96C140.406 56.8678 140.39 56.791 140.357 56.6988C140.324 56.5452 140.34 56.6527 140.34 56.6066V56.5298L140.324 56.453L140.307 56.2993C140.241 55.8844 140.208 55.4542 140.192 55.024C140.159 54.1635 140.274 53.2877 140.521 52.4426C140.768 51.5974 141.18 50.8138 141.691 50.1685C142.201 49.5077 142.827 49.0007 143.436 48.6473C144.046 48.2939 144.655 48.0787 145.182 47.9558C145.725 47.8329 146.186 47.7868 146.565 47.7868C146.944 47.7868 147.24 47.8175 147.438 47.8636C147.537 47.879 147.619 47.8944 147.668 47.9097C147.701 47.9712 147.734 47.9712 147.734 47.9712Z" fill="#FAF6F3"/>
</svg>
