<svg width="22" height="20" viewBox="0 0 22 20" fill="none" xmlns="http://www.w3.org/2000/svg">
<path d="M10.4951 0.713812C10.7017 0.295266 11.2985 0.295266 11.5051 0.713812L14.1791 6.13194C14.2611 6.29814 14.4196 6.41334 14.6031 6.43999L20.5823 7.30883C21.0442 7.37595 21.2286 7.94357 20.8944 8.26936L16.5678 12.4868C16.4351 12.6162 16.3745 12.8026 16.4058 12.9852L17.4272 18.9403C17.5061 19.4004 17.0233 19.7512 16.6101 19.534L11.2621 16.7224C11.0981 16.6361 10.9021 16.6361 10.738 16.7224L5.39002 19.534C4.97689 19.7512 4.49404 19.4004 4.57294 18.9403L5.59432 12.9852C5.62565 12.8026 5.56509 12.6162 5.43236 12.4868L1.10573 8.26936C0.771505 7.94357 0.955936 7.37595 1.41783 7.30883L7.39708 6.43999C7.5805 6.41334 7.73906 6.29814 7.82109 6.13194L10.4951 0.713812Z" fill="black"/>
<path d="M10.4951 0.713812C10.7017 0.295266 11.2985 0.295266 11.5051 0.713812L14.1791 6.13194C14.2611 6.29814 14.4196 6.41334 14.6031 6.43999L20.5823 7.30883C21.0442 7.37595 21.2286 7.94357 20.8944 8.26936L16.5678 12.4868C16.4351 12.6162 16.3745 12.8026 16.4058 12.9852L17.4272 18.9403C17.5061 19.4004 17.0233 19.7512 16.6101 19.534L11.2621 16.7224C11.0981 16.6361 10.9021 16.6361 10.738 16.7224L5.39002 19.534C4.97689 19.7512 4.49404 19.4004 4.57294 18.9403L5.59432 12.9852C5.62565 12.8026 5.56509 12.6162 5.43236 12.4868L1.10573 8.26936C0.771505 7.94357 0.955936 7.37595 1.41783 7.30883L7.39708 6.43999C7.5805 6.41334 7.73906 6.29814 7.82109 6.13194L10.4951 0.713812Z" stroke="black"/>
</svg>
