<svg width="290" height="268" viewBox="0 0 290 268" fill="none" xmlns="http://www.w3.org/2000/svg">
<path d="M52.4312 185.324C52.4312 185.324 17.7825 172.263 33.1801 117.055C35.9796 111.508 43.1597 97.2945 52.4312 115.426C55.9388 125.552 59.0842 134.372 59.0842 134.372C59.0842 134.372 65.2103 149.076 78.8623 125.721C92.5143 102.365 115.8 82.6051 148.868 87.6757C161.301 89.3044 183.879 95.1894 192.096 105.807C195.242 108.742 197.168 111.2 200.149 110.54C203.13 110.709 207.856 111.031 213.455 118.868C216.074 123.447 222.727 126.873 226.926 125.89C230.071 125.229 233.233 124.092 234.452 124.584C238.124 121.157 240.924 117.562 240.924 117.562C240.924 117.562 239.705 108.419 246.177 108.096C249.323 108.266 250.903 111.692 250.195 115.61C252.649 117.239 258.067 119.359 256.14 122.463C254.922 124.584 251.068 125.567 247.396 121.803C244.069 124.092 238.997 129.316 238.997 129.316C238.997 129.316 240.743 161.154 225.526 171.449C223.418 173.892 211.693 187.29 193.496 187.936C175.299 188.581 65.2103 188.597 65.2103 188.597C65.2103 188.597 57.388 188.074 52.4312 185.324Z" fill="#F4C323"/>
<path d="M225.526 171.449C238.915 162.398 239.178 136.707 239.046 130.622C219.515 130.423 222.578 155.407 221.014 159.033C217.342 163.197 208.679 169.805 200.544 173.738C178.757 185.001 151.453 178.148 145.409 176.427C125.187 164.918 97.8828 168.345 90.0111 169.082C69.0144 171.049 60.5993 169.328 54.572 167.361C28.8325 154.869 39.3391 109.065 39.3391 109.065L37.0665 110.509C35.3868 112.706 34.0529 115.318 33.1636 117.07C17.766 172.263 52.4147 185.339 52.4147 185.339C57.3715 188.09 65.1938 188.612 65.1938 188.612C65.1938 188.612 175.282 188.612 193.48 187.951C211.693 187.291 223.418 173.892 225.526 171.449Z" fill="#F3AF1A"/>
<path d="M86.3881 124C86.3881 124.823 86.7386 125.612 87.3624 126.195C87.9863 126.777 88.8324 127.104 89.7147 127.104C90.5969 127.104 91.443 126.777 92.0669 126.195C92.6907 125.612 93.0412 124.823 93.0412 124C93.0412 123.177 92.6907 122.387 92.0669 121.805C91.443 121.223 90.5969 120.896 89.7147 120.896C88.8324 120.896 87.9863 121.223 87.3624 121.805C86.7386 122.387 86.3881 123.177 86.3881 124Z" fill="#FAF6F3"/>
<path d="M125.5 101.351C125.5 102.174 125.85 102.964 126.474 103.546C127.098 104.128 127.944 104.455 128.826 104.455C129.708 104.455 130.555 104.128 131.178 103.546C131.802 102.964 132.153 102.174 132.153 101.351C132.153 100.528 131.802 99.7384 131.178 99.1563C130.555 98.5742 129.708 98.2472 128.826 98.2472C127.944 98.2472 127.098 98.5742 126.474 99.1563C125.85 99.7384 125.5 100.528 125.5 101.351Z" fill="#FAF6F3"/>
<path d="M135.479 110.54C135.479 111.363 135.83 112.152 136.454 112.734C137.077 113.316 137.924 113.643 138.806 113.643C139.688 113.643 140.534 113.316 141.158 112.734C141.782 112.152 142.132 111.363 142.132 110.54C142.132 109.716 141.782 108.927 141.158 108.345C140.534 107.763 139.688 107.436 138.806 107.436C137.924 107.436 137.077 107.763 136.454 108.345C135.83 108.927 135.479 109.716 135.479 110.54Z" fill="#FAF6F3"/>
<path d="M150.185 105.884C150.185 106.707 150.536 107.497 151.159 108.079C151.783 108.661 152.629 108.988 153.512 108.988C154.394 108.988 155.24 108.661 155.864 108.079C156.488 107.497 156.838 106.707 156.838 105.884C156.838 105.061 156.488 104.271 155.864 103.689C155.24 103.107 154.394 102.78 153.512 102.78C152.629 102.78 151.783 103.107 151.159 103.689C150.536 104.271 150.185 105.061 150.185 105.884Z" fill="#FAF6F3"/>
<path d="M185.097 119.59C185.097 120.413 185.448 121.203 186.072 121.785C186.695 122.367 187.542 122.694 188.424 122.694C189.306 122.694 190.152 122.367 190.776 121.785C191.4 121.203 191.75 120.413 191.75 119.59C191.75 118.767 191.4 117.977 190.776 117.395C190.152 116.813 189.306 116.486 188.424 116.486C187.542 116.486 186.695 116.813 186.072 117.395C185.448 117.977 185.097 118.767 185.097 119.59Z" fill="#FAF6F3"/>
<path d="M192.541 106.222C192.458 106.145 155.257 99.5994 149.477 133.158C148.16 144.175 149.74 164.027 149.477 166.224C152.622 150.797 162.586 106.176 198.552 110.586C197.185 110.509 195.62 109.172 194.385 107.974C193.595 107.221 192.87 106.545 192.541 106.222Z" fill="#F3AF1A"/>
<path d="M119.588 102.273C119.588 102.273 119.192 102.488 118.484 102.841C118.32 102.934 118.122 103.026 117.924 103.133C117.727 103.241 117.513 103.349 117.282 103.471C116.821 103.717 116.327 103.994 115.8 104.286C115.273 104.578 114.697 104.916 114.12 105.254C113.544 105.607 112.935 105.961 112.325 106.36C112.012 106.545 111.716 106.76 111.403 106.944C111.238 107.036 111.09 107.144 110.942 107.251C110.794 107.359 110.629 107.451 110.481 107.559C110.184 107.774 109.872 107.974 109.559 108.204C109.41 108.312 109.262 108.419 109.098 108.527L108.653 108.865C108.044 109.31 107.467 109.787 106.891 110.248C106.743 110.355 106.611 110.478 106.463 110.601C106.314 110.724 106.183 110.832 106.034 110.954C105.755 111.185 105.491 111.431 105.211 111.661C104.684 112.138 104.157 112.599 103.663 113.06C103.531 113.167 103.416 113.29 103.284 113.398C103.169 113.505 103.054 113.628 102.938 113.736C102.708 113.966 102.461 114.166 102.247 114.381C101.819 114.811 101.39 115.18 101.028 115.549C100.666 115.902 100.304 116.209 100.04 116.471C99.7602 116.732 99.5296 116.932 99.3649 117.07C99.2002 117.208 99.1014 117.285 99.1014 117.285V116.978C99.1014 116.778 99.1014 116.471 99.1344 116.102C99.1508 115.718 99.2332 115.272 99.332 114.75C99.4143 114.227 99.5955 113.659 99.7931 113.044C99.8425 112.891 99.9084 112.737 99.9578 112.583C100.024 112.43 100.09 112.261 100.155 112.107C100.221 111.938 100.287 111.784 100.369 111.615C100.452 111.446 100.534 111.293 100.616 111.123C100.946 110.447 101.374 109.771 101.852 109.08C102.099 108.742 102.346 108.404 102.626 108.066C102.906 107.743 103.202 107.405 103.515 107.082C104.141 106.452 104.832 105.838 105.557 105.3L106.117 104.9C106.314 104.778 106.496 104.655 106.693 104.516L106.99 104.332C107.088 104.27 107.187 104.209 107.286 104.163C107.484 104.055 107.681 103.932 107.879 103.825C108.274 103.61 108.686 103.41 109.098 103.226C109.509 103.057 109.921 102.872 110.333 102.734C111.156 102.442 111.963 102.227 112.753 102.058C113.544 101.904 114.285 101.812 114.977 101.766C115.668 101.72 116.31 101.72 116.887 101.766C117.447 101.797 117.941 101.873 118.353 101.95C118.748 102.027 119.061 102.104 119.275 102.181C119.374 102.211 119.456 102.242 119.522 102.258C119.571 102.258 119.588 102.273 119.588 102.273Z" fill="white"/>
<path d="M160.28 79.2093C160.28 79.2093 181.985 65.1652 200.528 84.1109C202.718 85.6628 209.717 87.0457 214.443 83.3734C217.16 81.0839 222.677 75.6138 222.677 75.6138C222.677 75.6138 220.932 62.6299 226.531 63.2906C229.067 63.4596 231.603 67.2088 230.994 71.7878C233.974 71.9568 240.265 72.5253 238.865 77.4269C238.157 78.902 233.612 80.6998 230.631 76.5357C226.86 79.5627 221.623 85.7243 221.623 85.7243C221.623 85.7243 226.959 103.963 223.632 110.494C217.934 109.28 207.626 106.007 188.885 94.0063C182.775 90.3954 166.933 81.2529 160.28 79.2093Z" fill="#F5C324"/>
<path d="M103.861 36.8926C104.289 36.8773 104.701 36.9387 105.129 37.0309C105.343 37.077 105.54 37.1231 105.754 37.1846C105.952 37.246 106.166 37.3229 106.364 37.3843C106.561 37.4612 106.759 37.538 106.957 37.6302C107.154 37.7224 107.352 37.8146 107.533 37.9221C107.731 38.0297 107.912 38.1372 108.093 38.2602L108.636 38.6289C108.982 38.8902 109.328 39.1667 109.641 39.474C109.789 39.6277 109.954 39.7814 110.102 39.935C110.25 40.104 110.398 40.2577 110.53 40.4267L110.925 40.9491C111.057 41.1335 111.172 41.3179 111.288 41.4869C111.419 41.6713 111.502 41.8557 111.617 42.0555L111.782 42.3474L111.914 42.6393C111.996 42.8391 112.111 43.0235 112.177 43.2232L112.408 43.8225C112.49 44.0222 112.539 44.222 112.605 44.4371C112.671 44.6369 112.737 44.852 112.77 45.0517L112.902 45.6663C112.935 45.8661 112.967 46.0812 113 46.281C113.066 46.6958 113.099 47.1107 113.132 47.5256C113.149 47.7407 113.149 47.9404 113.149 48.1402V48.7548C113.132 49.1543 113.116 49.5692 113.083 49.9687C113.033 50.3682 113 50.7677 112.935 51.1672C112.869 51.5667 112.803 51.9509 112.72 52.3504L112.688 52.5194L112.655 52.6269L112.029 54.3325L111.732 55.1622L111.452 55.992L111.172 56.8217C111.09 57.0983 110.991 57.3749 110.925 57.6361C110.761 58.1893 110.613 58.7271 110.497 59.2802C110.431 59.5568 110.382 59.8334 110.333 60.1099C110.283 60.3865 110.234 60.6631 110.201 60.9397L110.151 61.3546C110.135 61.4928 110.118 61.6311 110.118 61.7848C110.102 61.9231 110.102 62.0614 110.086 62.215C110.069 62.3533 110.069 62.507 110.069 62.6453V63.2906L110.086 63.5057C110.086 63.6594 110.102 63.7977 110.118 63.9513C110.135 64.105 110.135 64.2586 110.168 64.3969C110.201 64.7042 110.25 65.0116 110.3 65.3189L110.398 65.7952C110.431 65.9489 110.464 66.1179 110.497 66.2715C110.366 66.1793 110.217 66.0718 110.086 65.9642C109.954 65.8567 109.822 65.7337 109.69 65.6262C109.559 65.5186 109.443 65.3803 109.328 65.2574C109.196 65.1345 109.097 64.9962 108.982 64.8579C108.768 64.5967 108.554 64.3047 108.373 64.0128C108.274 63.8591 108.192 63.7208 108.109 63.5672L107.862 63.1062C107.78 62.9526 107.714 62.7836 107.648 62.6299C107.582 62.4609 107.517 62.3072 107.467 62.1382C107.352 61.8155 107.253 61.4775 107.171 61.1394C107.088 60.8014 107.023 60.4634 106.957 60.1253C106.907 59.7873 106.858 59.4339 106.841 59.0958C106.792 58.4044 106.792 57.7283 106.825 57.0522C106.841 56.7142 106.874 56.3761 106.924 56.0381C106.957 55.7 107.006 55.3774 107.072 55.0393C107.121 54.7166 107.187 54.3786 107.253 54.0713C107.319 53.7486 107.401 53.4259 107.484 53.1186C107.566 52.796 107.648 52.4886 107.731 52.1813C107.813 51.874 107.912 51.5667 108.011 51.2748L107.945 51.5513C107.994 51.2133 108.044 50.8906 108.109 50.5526L108.241 49.5692L108.34 48.5858C108.356 48.2631 108.389 47.9405 108.389 47.6178C108.389 47.2951 108.406 46.9724 108.406 46.6497L108.389 46.1734L108.356 45.6971C108.356 45.5434 108.34 45.3744 108.323 45.2207C108.307 45.0671 108.291 44.9134 108.274 44.7444C108.225 44.4371 108.192 44.1144 108.126 43.8225L108.076 43.592L108.027 43.3615C107.994 43.2079 107.961 43.0542 107.912 42.9006C107.862 42.7469 107.829 42.5932 107.78 42.4396L107.632 41.9786L107.451 41.533C107.385 41.3794 107.319 41.2411 107.253 41.0874C107.187 40.9338 107.105 40.7955 107.039 40.6418C106.957 40.4882 106.874 40.3499 106.792 40.1962L106.528 39.766C106.43 39.6277 106.347 39.474 106.232 39.3358C106.034 39.0438 105.82 38.7672 105.573 38.4906C105.458 38.3524 105.343 38.2141 105.211 38.0758L104.816 37.6609C104.47 37.4151 104.19 37.1538 103.861 36.8926ZM143.713 21.1583C143.433 21.4042 143.17 21.6347 142.923 21.8805C142.676 22.1264 142.429 22.3722 142.198 22.6181L142.033 22.8024C141.984 22.8639 141.918 22.9254 141.869 22.9868C141.754 23.1097 141.655 23.2327 141.539 23.371C141.441 23.4939 141.342 23.6322 141.243 23.7551L140.963 24.1392L140.7 24.5234L140.453 24.9075L140.222 25.307C140.156 25.4299 140.09 25.5682 140.024 25.7065C139.893 25.9677 139.777 26.229 139.679 26.5055C139.646 26.567 139.629 26.6438 139.596 26.7053L139.53 26.905C139.481 27.0433 139.448 27.1662 139.415 27.3045C139.382 27.4428 139.333 27.5658 139.316 27.704C139.3 27.8423 139.267 27.9653 139.234 28.1035C139.217 28.2418 139.201 28.3648 139.185 28.503C139.168 28.626 139.152 28.7643 139.152 28.9026C139.119 29.1638 139.135 29.4403 139.119 29.7016L139.135 30.1011L139.152 30.3008C139.152 30.3623 139.168 30.4391 139.168 30.5006L139.217 30.9001L139.283 31.2996C139.316 31.5608 139.399 31.8374 139.448 32.1139C139.497 32.3905 139.596 32.6517 139.662 32.9283C139.744 33.2049 139.843 33.4661 139.926 33.7427L139.843 33.5429C139.991 33.8656 140.156 34.2037 140.304 34.5417C140.453 34.8797 140.617 35.2178 140.765 35.5712C141.062 36.2626 141.342 36.9848 141.589 37.7377C141.721 38.1065 141.819 38.4906 141.935 38.8748C142.033 39.2589 142.132 39.6431 142.215 40.0426C142.248 40.2423 142.297 40.4421 142.33 40.6418C142.363 40.8416 142.396 41.0413 142.412 41.2411C142.462 41.6406 142.495 42.0554 142.511 42.455C142.528 42.8698 142.528 43.2693 142.495 43.6842C142.478 44.0991 142.429 44.4986 142.363 44.8981C142.297 45.2976 142.215 45.6971 142.099 46.0966C141.984 46.4961 141.852 46.8802 141.704 47.249L141.457 47.8022L141.194 48.34C140.996 48.6934 140.798 49.0314 140.551 49.3694C140.321 49.6921 140.074 50.0148 139.81 50.3067C139.547 50.6141 139.267 50.8906 138.97 51.1518C139.003 50.7677 139.069 50.3989 139.102 50.0148L139.135 49.7382L139.152 49.4616C139.168 49.2773 139.185 49.1082 139.201 48.9238C139.201 48.7395 139.234 48.5704 139.234 48.386L139.25 47.8636V47.3412L139.234 46.8341C139.217 46.4961 139.201 46.158 139.152 45.82C139.135 45.651 139.102 45.482 139.086 45.3283C139.069 45.1593 139.036 45.0056 139.003 44.8366C138.888 44.1913 138.74 43.5613 138.559 42.9313C138.476 42.624 138.361 42.3167 138.262 41.994L137.916 41.0721L137.735 40.6111L137.538 40.1501L137.34 39.6892L137.126 39.2282L136.698 38.2909L136.253 37.3382L135.792 36.3548C135.627 36.0322 135.479 35.6788 135.331 35.3407L135.282 35.2178L135.265 35.141C135.15 34.7722 135.051 34.4034 134.936 34.0346C134.886 33.8503 134.853 33.6505 134.804 33.4661C134.771 33.2817 134.722 33.082 134.689 32.8976C134.639 32.5135 134.573 32.1293 134.557 31.7298C134.541 31.5301 134.541 31.3303 134.524 31.1306L134.541 30.5313C134.541 30.4237 134.541 30.3315 134.557 30.2394L134.59 29.932C134.606 29.7323 134.623 29.5325 134.672 29.3328C134.755 28.9333 134.82 28.5338 134.952 28.1496C135.051 27.7501 135.216 27.3814 135.364 26.9972C135.446 26.8128 135.545 26.6285 135.627 26.4441C135.726 26.2597 135.825 26.0907 135.924 25.9063C136.023 25.7219 136.138 25.5682 136.253 25.3992L136.434 25.1534C136.5 25.0765 136.566 24.9997 136.632 24.9075C136.879 24.5848 137.159 24.2929 137.439 24.0163C137.587 23.878 137.735 23.7397 137.884 23.6168C138.032 23.4939 138.196 23.3556 138.345 23.248C138.509 23.1251 138.658 23.0176 138.822 22.8946L139.316 22.572C139.662 22.3722 139.991 22.1878 140.354 22.0342C140.716 21.8805 141.062 21.7268 141.441 21.6039C141.803 21.481 142.182 21.3888 142.544 21.312C142.939 21.2198 143.318 21.1583 143.713 21.1583ZM173.734 47.9712C173.734 47.9712 173.652 48.0326 173.504 48.1556C173.356 48.2785 173.158 48.4629 172.911 48.678C172.68 48.9085 172.4 49.1851 172.137 49.5077C171.873 49.8304 171.61 50.1992 171.412 50.5833C171.198 50.9828 171.05 51.3977 170.951 51.8279C170.852 52.2582 170.803 52.7038 170.82 53.1955C170.82 53.6718 170.869 54.1942 170.968 54.732C171.001 54.8703 171.017 55.0086 171.05 55.1469C171.067 55.2083 171.083 55.2852 171.099 55.362L171.149 55.5771L171.165 55.6847L171.182 55.7308V55.7769C171.182 55.7461 171.198 55.8537 171.165 55.7C171.182 55.7922 171.215 55.8691 171.231 55.9613L171.248 55.992V56.0074L171.264 56.0381L171.281 56.0995C171.281 56.1303 171.314 56.2071 171.346 56.2532C171.511 56.7295 171.791 57.3288 172.071 57.9741C172.351 58.6349 172.647 59.357 172.845 60.1253C173.043 60.8936 173.158 61.708 173.125 62.4916C173.092 63.2599 172.927 63.9974 172.68 64.5967C172.433 65.2113 172.12 65.7184 171.791 66.1179C171.462 66.5174 171.149 66.8401 170.869 67.0705C170.589 67.301 170.358 67.47 170.177 67.5776C170.013 67.6852 169.914 67.7313 169.914 67.7313C169.914 67.7313 169.914 67.6237 169.93 67.4393C169.93 67.3471 169.947 67.2396 169.947 67.1013C169.947 66.963 169.963 66.8247 169.963 66.6557C169.98 66.333 169.98 65.9488 169.98 65.534C169.963 65.1191 169.914 64.6735 169.831 64.2279C169.749 63.7823 169.601 63.3367 169.42 62.8911C169.239 62.4455 168.992 61.9999 168.712 61.5082C168.399 60.9858 168.069 60.4326 167.724 59.8795C167.361 59.2648 166.966 58.5734 166.653 57.6976C166.62 57.59 166.571 57.4978 166.538 57.3442L166.472 57.1444L166.439 57.0368L166.423 56.9907V56.96C166.406 56.8678 166.39 56.791 166.357 56.6988C166.324 56.5452 166.34 56.6527 166.34 56.6066V56.5298L166.324 56.453L166.307 56.2993C166.241 55.8844 166.208 55.4542 166.192 55.024C166.159 54.1635 166.274 53.2877 166.521 52.4426C166.768 51.5974 167.18 50.8138 167.691 50.1685C168.201 49.5077 168.827 49.0007 169.436 48.6473C170.046 48.2939 170.655 48.0787 171.182 47.9558C171.725 47.8329 172.186 47.7868 172.565 47.7868C172.944 47.7868 173.24 47.8175 173.438 47.8636C173.537 47.879 173.619 47.8944 173.668 47.9097C173.701 47.9712 173.734 47.9712 173.734 47.9712Z" fill="#FAF6F3"/>
<path d="M25.8984 222.961V228.023H7.94531V222.961H25.8984ZM9.70312 208.875V243H3.25781V208.875H9.70312ZM30.6797 208.875V243H24.2344V208.875H30.6797ZM51.8672 236.977V217.641H58.1016V243H52.2422L51.8672 236.977ZM52.6641 231.727L54.5859 231.68C54.5859 233.383 54.3984 234.953 54.0234 236.391C53.6484 237.828 53.0625 239.078 52.2656 240.141C51.4844 241.188 50.4922 242.008 49.2891 242.602C48.0859 243.18 46.6641 243.469 45.0234 243.469C43.7734 243.469 42.6328 243.297 41.6016 242.953C40.5703 242.594 39.6797 242.039 38.9297 241.289C38.1953 240.523 37.625 239.547 37.2188 238.359C36.8125 237.156 36.6094 235.711 36.6094 234.023V217.641H42.7969V234.07C42.7969 234.914 42.8906 235.617 43.0781 236.18C43.2812 236.742 43.5547 237.203 43.8984 237.562C44.2578 237.906 44.6719 238.156 45.1406 238.312C45.625 238.453 46.1406 238.523 46.6875 238.523C48.1875 238.523 49.3672 238.227 50.2266 237.633C51.1016 237.023 51.7266 236.211 52.1016 235.195C52.4766 234.164 52.6641 233.008 52.6641 231.727ZM69.6562 223.055V243H63.4688V217.641H69.2812L69.6562 223.055ZM68.6719 229.406H66.8438C66.8594 227.562 67.1094 225.891 67.5938 224.391C68.0781 222.891 68.7578 221.602 69.6328 220.523C70.5234 219.445 71.5781 218.617 72.7969 218.039C74.0156 217.461 75.375 217.172 76.875 217.172C78.0938 217.172 79.1953 217.344 80.1797 217.688C81.1641 218.031 82.0078 218.578 82.7109 219.328C83.4297 220.078 83.9766 221.062 84.3516 222.281C84.7422 223.484 84.9375 224.969 84.9375 226.734V243H78.7031V226.688C78.7031 225.531 78.5312 224.617 78.1875 223.945C77.8594 223.273 77.375 222.797 76.7344 222.516C76.1094 222.234 75.3359 222.094 74.4141 222.094C73.4609 222.094 72.625 222.289 71.9062 222.68C71.2031 223.055 70.6094 223.578 70.125 224.25C69.6562 224.922 69.2969 225.695 69.0469 226.57C68.7969 227.445 68.6719 228.391 68.6719 229.406ZM106.523 217.641H112.148V242.227C112.148 244.523 111.648 246.469 110.648 248.062C109.664 249.672 108.281 250.891 106.5 251.719C104.719 252.562 102.648 252.984 100.289 252.984C99.2734 252.984 98.1719 252.844 96.9844 252.562C95.8125 252.281 94.6797 251.836 93.5859 251.227C92.5078 250.633 91.6094 249.859 90.8906 248.906L93.6797 245.25C94.5234 246.234 95.4766 246.977 96.5391 247.477C97.6016 247.992 98.75 248.25 99.9844 248.25C101.234 248.25 102.297 248.016 103.172 247.547C104.062 247.094 104.742 246.422 105.211 245.531C105.695 244.656 105.938 243.578 105.938 242.297V223.43L106.523 217.641ZM89.3906 230.625V230.133C89.3906 228.195 89.625 226.438 90.0938 224.859C90.5625 223.266 91.2344 221.898 92.1094 220.758C93 219.617 94.0703 218.734 95.3203 218.109C96.5859 217.484 98.0078 217.172 99.5859 217.172C101.258 217.172 102.664 217.477 103.805 218.086C104.961 218.695 105.914 219.562 106.664 220.688C107.43 221.812 108.023 223.148 108.445 224.695C108.883 226.227 109.219 227.914 109.453 229.758V231.094C109.234 232.891 108.883 234.539 108.398 236.039C107.93 237.539 107.305 238.852 106.523 239.977C105.742 241.086 104.773 241.945 103.617 242.555C102.461 243.164 101.102 243.469 99.5391 243.469C97.9766 243.469 96.5703 243.148 95.3203 242.508C94.0703 241.867 93 240.969 92.1094 239.812C91.2344 238.656 90.5625 237.297 90.0938 235.734C89.625 234.172 89.3906 232.469 89.3906 230.625ZM95.5781 230.133V230.625C95.5781 231.719 95.6875 232.742 95.9062 233.695C96.125 234.648 96.4609 235.492 96.9141 236.227C97.3672 236.945 97.9375 237.508 98.625 237.914C99.3125 238.32 100.133 238.523 101.086 238.523C102.367 238.523 103.414 238.258 104.227 237.727C105.055 237.18 105.68 236.438 106.102 235.5C106.539 234.547 106.82 233.477 106.945 232.289V228.609C106.867 227.672 106.695 226.805 106.43 226.008C106.18 225.211 105.828 224.523 105.375 223.945C104.922 223.367 104.344 222.914 103.641 222.586C102.938 222.258 102.102 222.094 101.133 222.094C100.195 222.094 99.375 222.305 98.6719 222.727C97.9688 223.133 97.3906 223.703 96.9375 224.438C96.4844 225.172 96.1406 226.023 95.9062 226.992C95.6875 227.961 95.5781 229.008 95.5781 230.133ZM123.914 222.82V243H117.727V217.641H123.586L123.914 222.82ZM131.625 217.477L131.531 223.242C131.188 223.18 130.797 223.133 130.359 223.102C129.938 223.07 129.539 223.055 129.164 223.055C128.211 223.055 127.375 223.188 126.656 223.453C125.938 223.703 125.336 224.07 124.852 224.555C124.383 225.039 124.023 225.633 123.773 226.336C123.523 227.023 123.383 227.805 123.352 228.68L122.016 228.516C122.016 226.906 122.18 225.414 122.508 224.039C122.836 222.664 123.312 221.461 123.938 220.43C124.562 219.398 125.344 218.602 126.281 218.039C127.234 217.461 128.328 217.172 129.562 217.172C129.906 217.172 130.273 217.203 130.664 217.266C131.07 217.312 131.391 217.383 131.625 217.477ZM142.875 240.188L149.672 217.641H156.305L146.133 246.844C145.898 247.469 145.594 248.148 145.219 248.883C144.859 249.617 144.375 250.312 143.766 250.969C143.156 251.641 142.391 252.188 141.469 252.609C140.562 253.031 139.461 253.242 138.164 253.242C137.602 253.242 137.102 253.203 136.664 253.125C136.227 253.047 135.766 252.945 135.281 252.82V248.18C135.438 248.195 135.617 248.203 135.82 248.203C136.039 248.219 136.227 248.227 136.383 248.227C137.289 248.227 138.039 248.117 138.633 247.898C139.227 247.695 139.703 247.359 140.062 246.891C140.438 246.438 140.75 245.844 141 245.109L142.875 240.188ZM139.523 217.641L145.266 236.32L146.273 242.859L142.008 243.633L132.844 217.641H139.523ZM178.172 208.875V243H171.727V208.875H178.172ZM191.93 223.617V228.703H176.484V223.617H191.93ZM193.734 208.875V213.961H176.484V208.875H193.734ZM196.031 230.578V230.086C196.031 228.227 196.297 226.516 196.828 224.953C197.359 223.375 198.133 222.008 199.148 220.852C200.164 219.695 201.406 218.797 202.875 218.156C204.344 217.5 206.016 217.172 207.891 217.172C209.797 217.172 211.484 217.5 212.953 218.156C214.438 218.797 215.688 219.695 216.703 220.852C217.719 222.008 218.492 223.375 219.023 224.953C219.555 226.516 219.82 228.227 219.82 230.086V230.578C219.82 232.422 219.555 234.133 219.023 235.711C218.492 237.273 217.719 238.641 216.703 239.812C215.688 240.969 214.445 241.867 212.977 242.508C211.508 243.148 209.828 243.469 207.938 243.469C206.062 243.469 204.383 243.148 202.898 242.508C201.414 241.867 200.164 240.969 199.148 239.812C198.133 238.641 197.359 237.273 196.828 235.711C196.297 234.133 196.031 232.422 196.031 230.578ZM202.219 230.086V230.578C202.219 231.688 202.328 232.727 202.547 233.695C202.766 234.664 203.102 235.516 203.555 236.25C204.008 236.984 204.594 237.562 205.312 237.984C206.047 238.391 206.922 238.594 207.938 238.594C208.938 238.594 209.797 238.391 210.516 237.984C211.234 237.562 211.82 236.984 212.273 236.25C212.742 235.516 213.086 234.664 213.305 233.695C213.523 232.727 213.633 231.688 213.633 230.578V230.086C213.633 228.992 213.523 227.969 213.305 227.016C213.086 226.047 212.742 225.195 212.273 224.461C211.82 223.711 211.227 223.125 210.492 222.703C209.773 222.266 208.906 222.047 207.891 222.047C206.891 222.047 206.031 222.266 205.312 222.703C204.594 223.125 204.008 223.711 203.555 224.461C203.102 225.195 202.766 226.047 202.547 227.016C202.328 227.969 202.219 228.992 202.219 230.086ZM223.219 230.578V230.086C223.219 228.227 223.484 226.516 224.016 224.953C224.547 223.375 225.32 222.008 226.336 220.852C227.352 219.695 228.594 218.797 230.062 218.156C231.531 217.5 233.203 217.172 235.078 217.172C236.984 217.172 238.672 217.5 240.141 218.156C241.625 218.797 242.875 219.695 243.891 220.852C244.906 222.008 245.68 223.375 246.211 224.953C246.742 226.516 247.008 228.227 247.008 230.086V230.578C247.008 232.422 246.742 234.133 246.211 235.711C245.68 237.273 244.906 238.641 243.891 239.812C242.875 240.969 241.633 241.867 240.164 242.508C238.695 243.148 237.016 243.469 235.125 243.469C233.25 243.469 231.57 243.148 230.086 242.508C228.602 241.867 227.352 240.969 226.336 239.812C225.32 238.641 224.547 237.273 224.016 235.711C223.484 234.133 223.219 232.422 223.219 230.578ZM229.406 230.086V230.578C229.406 231.688 229.516 232.727 229.734 233.695C229.953 234.664 230.289 235.516 230.742 236.25C231.195 236.984 231.781 237.562 232.5 237.984C233.234 238.391 234.109 238.594 235.125 238.594C236.125 238.594 236.984 238.391 237.703 237.984C238.422 237.562 239.008 236.984 239.461 236.25C239.93 235.516 240.273 234.664 240.492 233.695C240.711 232.727 240.82 231.688 240.82 230.578V230.086C240.82 228.992 240.711 227.969 240.492 227.016C240.273 226.047 239.93 225.195 239.461 224.461C239.008 223.711 238.414 223.125 237.68 222.703C236.961 222.266 236.094 222.047 235.078 222.047C234.078 222.047 233.219 222.266 232.5 222.703C231.781 223.125 231.195 223.711 230.742 224.461C230.289 225.195 229.953 226.047 229.734 227.016C229.516 227.969 229.406 228.992 229.406 230.086ZM266.719 237.609V207H272.953V243H267.328L266.719 237.609ZM250.43 230.625V230.133C250.43 228.195 250.648 226.438 251.086 224.859C251.539 223.266 252.195 221.898 253.055 220.758C253.914 219.617 254.953 218.734 256.172 218.109C257.406 217.484 258.805 217.172 260.367 217.172C261.883 217.172 263.203 217.477 264.328 218.086C265.469 218.695 266.438 219.562 267.234 220.688C268.047 221.812 268.695 223.148 269.18 224.695C269.664 226.227 270.016 227.914 270.234 229.758V231.094C270.016 232.891 269.664 234.539 269.18 236.039C268.695 237.539 268.047 238.852 267.234 239.977C266.438 241.086 265.469 241.945 264.328 242.555C263.188 243.164 261.852 243.469 260.32 243.469C258.773 243.469 257.383 243.148 256.148 242.508C254.93 241.867 253.891 240.969 253.031 239.812C252.188 238.656 251.539 237.297 251.086 235.734C250.648 234.172 250.43 232.469 250.43 230.625ZM256.641 230.133V230.625C256.641 231.719 256.734 232.742 256.922 233.695C257.109 234.648 257.414 235.492 257.836 236.227C258.258 236.945 258.797 237.508 259.453 237.914C260.125 238.32 260.938 238.523 261.891 238.523C263.109 238.523 264.109 238.258 264.891 237.727C265.688 237.18 266.305 236.438 266.742 235.5C267.18 234.547 267.461 233.477 267.586 232.289V228.609C267.523 227.672 267.359 226.805 267.094 226.008C266.844 225.211 266.484 224.523 266.016 223.945C265.562 223.367 265 222.914 264.328 222.586C263.656 222.258 262.859 222.094 261.938 222.094C260.984 222.094 260.172 222.305 259.5 222.727C258.828 223.133 258.281 223.703 257.859 224.438C257.438 225.172 257.125 226.023 256.922 226.992C256.734 227.961 256.641 229.008 256.641 230.133Z" fill="white"/>
</svg>
