<svg width="28" height="27" viewBox="0 0 28 27" fill="none" xmlns="http://www.w3.org/2000/svg">
<g filter="url(#filter0_d_101_2710)">
<path d="M2.3999 0.992676C1.84762 0.992676 1.3999 1.44039 1.3999 1.99268C1.3999 2.54496 1.84762 2.99268 2.3999 2.99268V0.992676ZM4.69244 1.99268L5.65767 1.73126C5.53961 1.29536 5.14405 0.992676 4.69244 0.992676V1.99268ZM8.41781 15.7479L7.45259 16.0093C7.58285 16.4903 8.04737 16.802 8.54185 16.7402L8.41781 15.7479ZM19.8805 14.3151L20.0045 15.3073C20.4292 15.2543 20.773 14.9368 20.8598 14.5177L19.8805 14.3151ZM21.5999 6.00462L22.5792 6.20722C22.6401 5.91271 22.5652 5.60641 22.3753 5.37319C22.1854 5.13998 21.9007 5.00462 21.5999 5.00462V6.00462ZM5.77901 6.00462L4.81378 6.26603L5.77901 6.00462ZM2.3999 2.99268H4.69244V0.992676H2.3999V2.99268ZM8.54185 16.7402L20.0045 15.3073L19.7565 13.3228L8.29378 14.7556L8.54185 16.7402ZM20.8598 14.5177L22.5792 6.20722L20.6206 5.80201L18.9012 14.1125L20.8598 14.5177ZM3.72721 2.25409L4.81378 6.26603L6.74423 5.7432L5.65767 1.73126L3.72721 2.25409ZM4.81378 6.26603L7.45259 16.0093L9.38304 15.4865L6.74423 5.7432L4.81378 6.26603ZM21.5999 5.00462H5.77901V7.00462H21.5999V5.00462ZM10.9999 19.4999C10.9999 19.7761 10.776 19.9999 10.4999 19.9999V21.9999C11.8806 21.9999 12.9999 20.8807 12.9999 19.4999H10.9999ZM10.4999 19.9999C10.2238 19.9999 9.9999 19.7761 9.9999 19.4999H7.9999C7.9999 20.8807 9.11919 21.9999 10.4999 21.9999V19.9999ZM9.9999 19.4999C9.9999 19.2238 10.2238 18.9999 10.4999 18.9999V16.9999C9.11919 16.9999 7.9999 18.1192 7.9999 19.4999H9.9999ZM10.4999 18.9999C10.776 18.9999 10.9999 19.2238 10.9999 19.4999H12.9999C12.9999 18.1192 11.8806 16.9999 10.4999 16.9999V18.9999ZM18.9999 19.4999C18.9999 19.7761 18.776 19.9999 18.4999 19.9999V21.9999C19.8806 21.9999 20.9999 20.8807 20.9999 19.4999H18.9999ZM18.4999 19.9999C18.2238 19.9999 17.9999 19.7761 17.9999 19.4999H15.9999C15.9999 20.8807 17.1192 21.9999 18.4999 21.9999V19.9999ZM17.9999 19.4999C17.9999 19.2238 18.2238 18.9999 18.4999 18.9999V16.9999C17.1192 16.9999 15.9999 18.1192 15.9999 19.4999H17.9999ZM18.4999 18.9999C18.776 18.9999 18.9999 19.2238 18.9999 19.4999H20.9999C20.9999 18.1192 19.8806 16.9999 18.4999 16.9999V18.9999Z" fill="#FCE000"/>
</g>
<defs>
<filter id="filter0_d_101_2710" x="0.399902" y="-0.00732422" width="27.2" height="27.0073" filterUnits="userSpaceOnUse" color-interpolation-filters="sRGB">
<feFlood flood-opacity="0" result="BackgroundImageFix"/>
<feColorMatrix in="SourceAlpha" type="matrix" values="0 0 0 0 0 0 0 0 0 0 0 0 0 0 0 0 0 0 127 0" result="hardAlpha"/>
<feOffset dx="2" dy="2"/>
<feGaussianBlur stdDeviation="1.5"/>
<feComposite in2="hardAlpha" operator="out"/>
<feColorMatrix type="matrix" values="0 0 0 0 0 0 0 0 0 0 0 0 0 0 0 0 0 0 0.25 0"/>
<feBlend mode="normal" in2="BackgroundImageFix" result="effect1_dropShadow_101_2710"/>
<feBlend mode="normal" in="SourceGraphic" in2="effect1_dropShadow_101_2710" result="shape"/>
</filter>
</defs>
</svg>
